<?xml version="1.0" encoding="UTF-8" standalone="no"?>
<!-- Created with Inkscape (http://www.inkscape.org/) -->

<svg
   xmlns:dc="http://purl.org/dc/elements/1.1/"
   xmlns:cc="http://creativecommons.org/ns#"
   xmlns:rdf="http://www.w3.org/1999/02/22-rdf-syntax-ns#"
   xmlns:svg="http://www.w3.org/2000/svg"
   xmlns="http://www.w3.org/2000/svg"
   xmlns:xlink="http://www.w3.org/1999/xlink"
   xmlns:sodipodi="http://sodipodi.sourceforge.net/DTD/sodipodi-0.dtd"
   xmlns:inkscape="http://www.inkscape.org/namespaces/inkscape"
   width="164.60878mm"
   height="115.65005mm"
   viewBox="0 0 164.60878 115.65005"
   version="1.1"
   id="svg8"
   sodipodi:docname="input_card.svg"
   inkscape:version="0.92.4 (5da689c313, 2019-01-14)">
  <defs
     id="defs2">
    <linearGradient
       id="linearGradient1808"
       inkscape:collect="always">
      <stop
         id="stop1798"
         offset="0"
         style="stop-color:#340034;stop-opacity:1" />
      <stop
         style="stop-color:#4d004d;stop-opacity:1"
         offset="0.10594378"
         id="stop1800" />
      <stop
         id="stop1802"
         offset="0.25381422"
         style="stop-color:#800080;stop-opacity:0.787" />
      <stop
         style="stop-color:#800080;stop-opacity:0"
         offset="0.99999976"
         id="stop1804" />
      <stop
         id="stop1806"
         offset="1"
         style="stop-color:#800080;stop-opacity:0;" />
    </linearGradient>
    <linearGradient
       id="linearGradient1557"
       inkscape:collect="always">
      <stop
         id="stop1547"
         offset="0"
         style="stop-color:#340034;stop-opacity:1" />
      <stop
         style="stop-color:#4d004d;stop-opacity:1"
         offset="0.64584649"
         id="stop1549" />
      <stop
         id="stop1551"
         offset="0.66843224"
         style="stop-color:#800080;stop-opacity:0.787" />
      <stop
         style="stop-color:#800080;stop-opacity:0"
         offset="0.78408462"
         id="stop1553" />
      <stop
         id="stop1555"
         offset="1"
         style="stop-color:#800080;stop-opacity:0;" />
    </linearGradient>
    <marker
       inkscape:stockid="Arrow1Lstart"
       orient="auto"
       refY="0"
       refX="0"
       id="Arrow1Lstart"
       style="overflow:visible"
       inkscape:isstock="true">
      <path
         id="path830"
         d="M 0,0 5,-5 -12.5,0 5,5 Z"
         style="fill-rule:evenodd;stroke:#000000;stroke-width:1.00000003pt"
         transform="matrix(0.8,0,0,0.8,10,0)"
         inkscape:connector-curvature="0" />
    </marker>
    <linearGradient
       inkscape:collect="always"
       xlink:href="#linearGradient1557"
       id="linearGradient1131"
       gradientUnits="userSpaceOnUse"
       x1="0.17446147"
       y1="90.421974"
       x2="142.875"
       y2="91.191971"
       gradientTransform="matrix(0.50263893,0,0,0.78694862,57.80228,11.702819)" />
    <radialGradient
       inkscape:collect="always"
       xlink:href="#linearGradient1808"
       id="radialGradient1796"
       cx="39.501785"
       cy="87.346062"
       fx="39.501785"
       fy="87.346062"
       r="6.0636778"
       gradientTransform="matrix(0.01005387,-1.8630087,1.8123593,0.00880485,-146.73689,85.883241)"
       gradientUnits="userSpaceOnUse" />
    <linearGradient
       inkscape:collect="always"
       xlink:href="#linearGradient1557"
       id="linearGradient1888"
       gradientUnits="userSpaceOnUse"
       gradientTransform="matrix(0.50263893,0,0,0.78788805,-57.951385,-152.09025)"
       x1="0.17446147"
       y1="90.421974"
       x2="142.875"
       y2="91.191971" />
    <linearGradient
       inkscape:collect="always"
       xlink:href="#linearGradient1557"
       id="linearGradient1892"
       gradientUnits="userSpaceOnUse"
       gradientTransform="matrix(0.50432031,0,0,0.50864386,-57.78103,12.887723)"
       x1="0.17446147"
       y1="90.421974"
       x2="142.875"
       y2="91.191971" />
    <linearGradient
       inkscape:collect="always"
       xlink:href="#linearGradient1557"
       id="linearGradient1900"
       gradientUnits="userSpaceOnUse"
       gradientTransform="matrix(0.50432031,0,0,0.50934111,106.19582,12.371383)"
       x1="0.17446147"
       y1="90.421974"
       x2="142.875"
       y2="91.191971" />
    <radialGradient
       inkscape:collect="always"
       xlink:href="#linearGradient1808"
       id="radialGradient1920"
       gradientUnits="userSpaceOnUse"
       gradientTransform="matrix(0.01005387,-1.8630087,1.8123593,0.00880485,-146.51085,-29.822473)"
       cx="39.501785"
       cy="87.346062"
       fx="39.501785"
       fy="87.346062"
       r="6.0636778" />
    <radialGradient
       inkscape:collect="always"
       xlink:href="#linearGradient1808"
       id="radialGradient1924"
       gradientUnits="userSpaceOnUse"
       gradientTransform="matrix(0.01005387,-1.8630087,1.8123593,0.00880485,-310.43597,-29.958699)"
       cx="39.501785"
       cy="87.346062"
       fx="39.501785"
       fy="87.346062"
       r="6.0636778" />
    <radialGradient
       inkscape:collect="always"
       xlink:href="#linearGradient1808"
       id="radialGradient1928"
       gradientUnits="userSpaceOnUse"
       gradientTransform="matrix(0.01005387,-1.8092141,1.8123589,0.00855061,-310.55961,83.156358)"
       cx="39.501785"
       cy="87.346062"
       fx="39.501785"
       fy="87.346062"
       r="6.0636778" />
  </defs>
  <sodipodi:namedview
     id="base"
     pagecolor="#ffffff"
     bordercolor="#666666"
     borderopacity="1.0"
     inkscape:pageopacity="0.0"
     inkscape:pageshadow="2"
     inkscape:zoom="1.4142136"
     inkscape:cx="269.89226"
     inkscape:cy="274.95259"
     inkscape:document-units="mm"
     inkscape:current-layer="g995"
     showgrid="false"
     showguides="false"
     inkscape:window-width="1920"
     inkscape:window-height="1017"
     inkscape:window-x="-8"
     inkscape:window-y="-8"
     inkscape:window-maximized="1"
     fit-margin-top="0"
     fit-margin-left="0"
     fit-margin-right="0"
     fit-margin-bottom="0" />
  <metadata
     id="metadata5">
    <rdf:RDF>
      <cc:Work
         rdf:about="">
        <dc:format>image/svg+xml</dc:format>
        <dc:type
           rdf:resource="http://purl.org/dc/dcmitype/StillImage" />
        <dc:title />
      </cc:Work>
    </rdf:RDF>
  </metadata>
  <g
     inkscape:label="Layer 1"
     inkscape:groupmode="layer"
     id="layer1"
     style="display:inline"
     transform="translate(0.31731629,0.30920662)">
    <g
       id="g995">
      <path
         style="opacity:1;fill:url(#linearGradient1900);fill-opacity:1;stroke:none;stroke-width:0.05068244;stroke-miterlimit:4;stroke-dasharray:none;stroke-opacity:1"
         d="m 106.0046,12.51949 h 57.9488 v 90.48386 h -57.9488 z"
         id="rect1898"
         transform="matrix(0.99999431,-0.0033721,0.00329111,0.99999458,0,0)" />
      <path
         style="opacity:1;fill:url(#linearGradient1892);fill-opacity:1;stroke:none;stroke-width:0.05064774;stroke-miterlimit:4;stroke-dasharray:none;stroke-opacity:1"
         d="M -57.972233,13.035621 H -0.0234375 V 103.39561 H -57.972233 Z"
         id="rect1890"
         transform="matrix(-0.99999433,-0.00336749,-0.00329563,0.99999457,0,0)" />
      <path
         style="opacity:1;fill:url(#linearGradient1888);fill-opacity:1;stroke:none;stroke-width:0.06293035;stroke-miterlimit:4;stroke-dasharray:none;stroke-opacity:1"
         d="m -58.141346,-151.86281 h 57.7556 v 139.967394 h -57.7556 z"
         id="rect1886"
         transform="matrix(-0.00224548,-0.99999748,-0.99999749,0.00224012,0,0)" />
      <path
         style="opacity:1;fill:url(#linearGradient1131);fill-opacity:1;stroke:none;stroke-width:0.06289283;stroke-miterlimit:4;stroke-dasharray:none;stroke-opacity:1"
         d="M 57.612297,11.930008 H 115.3679 V 151.73051 H 57.612297 Z"
         id="rect1129"
         transform="matrix(0.0022428,0.99999748,0.99999748,-0.0022428,0,0)" />
      <path
         style="fill:#000000;fill-opacity:1;stroke-width:0.19156955"
         d="m 21.579324,103.49442 c -4.853353,-0.14543 -4.602907,-0.0379 -5.894508,-2.52883 -1.054089,-2.032813 -0.996918,-2.867453 0.196302,-2.865833 0.621678,7.7e-4 0.931081,0.33936 1.675879,1.83364 0.318459,0.638913 0.69368,1.253973 0.833832,1.366803 0.471852,0.37987 79.199744,0.50595 114.032531,0.18264 17.0786,-0.15852 15.4297,0.0245 16.33193,-1.813243 l 0.51008,-1.039 -0.0533,-18.592496 c -0.0497,-17.32919 -0.0312,-18.60643 0.27217,-18.79754 0.2209,-0.13919 0.49777,-0.14433 0.86208,-0.016 l 0.53667,0.18905 0.13584,2.48648 c 0.0747,1.36757 0.14928,9.94406 0.16577,19.05888 l 0.0299,16.572396 -0.61306,1.242803 c -0.33719,0.68354 -0.9249,1.54409 -1.30605,1.91235 l -0.69298,0.66956 -9.61616,0.10858 c -13.65796,0.15423 -112.417776,0.17928 -117.406983,0.0298 z"
         id="path1432"
         inkscape:connector-curvature="0" />
      <path
         style="fill:#eb2b6e;fill-opacity:1;stroke:#ffffff;stroke-width:0.19156955;stroke-opacity:1"
         d="m 126.19702,103.02825 c 24.3315,-0.19217 22.24774,-0.0445 23.3481,-1.65527 1.32891,-1.945373 1.26483,-0.79043 1.15706,-20.851929 -0.0947,-17.6216 -0.13837,-18.82875 -0.68159,-18.82949 -0.50007,-6.9e-4 -0.53623,1.07758 -0.37281,11.11511 0.0935,5.73992 0.13943,14.05684 0.1022,18.482046 l -0.0678,8.04584 -0.5718,1.029103 c -0.31449,0.56602 -0.7463,1.14204 -0.95958,1.28006 -0.31261,0.20229 -6.33976,0.28229 -31.09172,0.41268 -32.315797,0.17023 -86.789704,0.11587 -94.572811,-0.0944 l -4.587608,-0.12392 -0.793612,-1.49563 c -0.97627,-1.839853 -1.09507,-1.969043 -1.435061,-1.560493 -0.227568,0.27344 -0.152752,0.53001 0.564147,1.934743 0.45517,0.8919 1.049144,1.76585 1.322068,1.94525 0.449383,0.2954 1.665582,0.33626 13.051782,0.43854 18.368889,0.165 70.542295,0.12557 95.588995,-0.0722 z"
         id="path1430"
         inkscape:connector-curvature="0" />
      <g
         transform="translate(-27.552937,-74.177349)"
         id="g1534">
        <path
           inkscape:connector-curvature="0"
           d="m 65.107916,107.50381 c -0.113605,-0.29726 -2.7162,-1.69779 -3.776037,-2.032 -1.158865,-0.36542 -6.834395,-0.83961 -16.473137,-1.37631 -3.110884,-0.1732 -3.950156,-0.0572 -3.421265,0.47319 0.194814,0.19535 1.61182,0.3421 5.433434,0.56275 13.251712,0.76511 14.416378,0.92586 16.850337,2.32588 1.103611,0.63479 1.618106,0.65204 1.386667,0.0464 z m -2.438221,0.3088 c -1.490514,-0.78674 -1.820225,-0.88107 -3.92566,-1.12322 -2.052219,-0.23603 -7.165287,-0.59593 -14.877769,-1.04721 -1.677671,-0.0982 -2.727162,-0.24363 -2.920886,-0.40486 -0.167073,-0.13904 -0.30198,-0.54301 -0.301492,-0.90278 0.0014,-1.07691 0.30848,-1.12437 5.512794,-0.85219 6.829726,0.3572 12.387308,0.78936 14.305361,1.11242 1.329127,0.22387 2.103604,0.49353 3.443634,1.19902 1.897703,0.99908 2.287704,1.50586 1.866955,2.42602 -0.329206,0.71994 -1.178712,0.60846 -3.102937,-0.4072 z m 13.088487,-0.17356 c 0.03202,-2.29635 -0.20639,-2.88437 -1.745187,-4.30522 -3.940731,-3.638715 -9.984566,-7.488095 -13.528626,-8.616512 -1.718811,-0.547266 -5.097455,-0.724805 -7.694315,-0.404332 -2.22364,0.274418 -5.893701,1.179045 -6.93841,1.710237 -0.99505,0.505935 -2.250447,1.944965 -3.231337,3.703979 -1.018661,1.826768 -1.193643,2.433448 -0.701154,2.430968 0.252397,-9.5e-4 0.607579,-0.48484 1.22033,-1.66144 0.475368,-0.91281 1.282294,-2.116736 1.79316,-2.67541 0.82234,-0.899283 1.108136,-1.071276 2.492435,-1.499938 4.018532,-1.24437 9.486176,-1.611096 12.500791,-0.838452 1.821973,0.466962 3.582869,1.283543 5.988616,2.777107 2.181034,1.35406 5.817459,4.071693 7.436587,5.557633 1.427877,1.31042 1.679626,2.0009 1.513956,4.15236 -0.12148,1.57749 0.08776,2.14584 0.601403,1.63359 0.185493,-0.185 0.275411,-0.79043 0.291751,-1.96457 z m -1.171957,2.69647 c -0.393636,-0.2765 -0.425662,-0.45158 -0.42938,-2.34731 -0.0027,-1.24687 -0.09485,-2.2056 -0.236146,-2.44992 -0.825662,-1.42774 -7.893663,-6.571208 -11.332546,-8.246847 -2.59517,-1.264516 -3.74108,-1.51358 -6.894482,-1.498478 -2.810689,0.01354 -5.149018,0.368951 -7.903717,1.20159 -1.190938,0.359972 -1.510921,0.557876 -2.297923,1.421239 -0.502871,0.551655 -1.296756,1.727936 -1.764189,2.613946 -0.467425,0.88601 -0.942631,1.67413 -1.056005,1.75139 -0.658575,0.44877 -1.834114,-0.12557 -1.833071,-0.89559 8.12e-4,-0.57389 1.584874,-3.530555 2.501613,-4.669179 1.122742,-1.394479 1.82527,-1.850429 3.752516,-2.43542 4.641265,-1.408814 9.49507,-1.746968 13.105273,-0.913024 1.548243,0.357645 5.030905,2.021102 7.199087,3.438581 2.421967,1.583396 5.990372,4.330362 7.410554,5.704662 1.526895,1.47757 1.729562,2.09206 1.621216,4.91563 -0.06921,1.80265 -0.117508,2.01938 -0.523322,2.34708 -0.543192,0.43864 -0.767862,0.44913 -1.319478,0.0617 z m -10.233242,0.42772 c 0.03952,-0.20222 -0.347276,-0.53185 -1.15727,-0.98628 -2.376576,-1.33328 -3.137428,-1.48344 -9.81719,-1.93756 -8.786895,-0.59736 -12.412623,-0.72418 -12.693569,-0.444 -0.525546,0.52413 0.230478,0.66861 4.647039,0.88817 5.714552,0.28407 12.430221,0.75337 14.04751,0.98167 0.893031,0.12607 1.765308,0.43567 2.903683,1.03061 1.71848,0.89813 1.97433,0.95591 2.069797,0.46739 z m -2.161736,0.30818 c -1.331279,-0.69891 -2.044574,-0.94162 -3.338422,-1.13599 -1.736423,-0.26085 -9.277347,-0.77926 -15.029954,-1.03324 -3.224434,-0.14237 -3.443961,-0.17618 -3.770522,-0.58058 -0.369201,-0.45721 -0.34913,-1.03459 0.05274,-1.51748 0.213593,-0.25666 0.759049,-0.27723 4.174089,-0.1574 7.956937,0.27918 15.308857,0.87577 16.965066,1.37667 0.919375,0.27804 3.150605,1.47781 3.615801,1.94427 0.632998,0.63472 0.110207,1.99403 -0.76644,1.99285 -0.115134,-1.6e-4 -0.971204,-0.40025 -1.902364,-0.8891 z m 12.11958,1.24681 c 0.03923,-0.20052 -0.569112,-0.64123 -1.898727,-1.37558 -2.077588,-1.14746 -2.532786,-1.2872 -2.429871,-0.74592 0.06672,0.35102 3.739895,2.58015 4.07928,2.47559 0.105407,-0.0324 0.217604,-0.19181 0.249318,-0.35409 z m -2.765787,-0.0242 c -0.962149,-0.54797 -1.888098,-1.1148 -2.057669,-1.25963 -0.667846,-0.57042 -0.144041,-1.94033 0.741447,-1.93914 0.413147,5.2e-4 3.99053,1.86927 4.518496,2.36032 0.409177,0.38056 0.471255,0.92737 0.169146,1.49001 -0.356323,0.66365 -1.424594,0.45719 -3.37142,-0.65156 z m -8.118452,2.44574 c 5.04e-4,-0.35654 -1.269014,-1.17818 -2.775331,-1.79626 -1.457666,-0.59812 -3.741313,-0.8919 -9.864122,-1.26902 -8.312103,-0.51196 -11.227666,-0.59686 -11.392021,-0.33173 -0.317026,0.51142 0.346262,0.66689 3.49038,0.81813 6.836078,0.32885 13.610376,0.79011 15.262696,1.03922 1.319024,0.19888 2.068003,0.4402 3.167537,1.0206 1.565754,0.82651 2.110263,0.96041 2.110861,0.51906 z m -2.490633,0.16867 c -1.095073,-0.57097 -2.034315,-0.90897 -2.872147,-1.03361 -1.519329,-0.22599 -8.542906,-0.71019 -14.343518,-0.98881 -2.35794,-0.11326 -4.448198,-0.29238 -4.645022,-0.39807 -0.517794,-0.27801 -0.498308,-1.62174 0.02755,-1.90226 0.275343,-0.14689 2.070539,-0.11825 6.369558,0.10164 10.732616,0.54889 13.699081,0.83659 15.348213,1.48854 1.304332,0.51564 3.113865,1.62954 3.257441,2.00522 0.33293,0.87113 -0.139186,1.62186 -1.0018,1.59298 -0.282204,-0.009 -1.245343,-0.39897 -2.140301,-0.8656 z m 12.547127,0.51094 c 4.12e-4,-0.30075 -3.689625,-2.52725 -4.01968,-2.42541 -0.105407,0.0325 -0.191853,0.20546 -0.192095,0.38433 -2.49e-4,0.21078 0.639433,0.68857 1.81808,1.35789 1.836832,1.04308 2.392993,1.20181 2.393695,0.68319 z m -2.670376,-0.002 c -1.151763,-0.63281 -2.162519,-1.2586 -2.246127,-1.39068 -0.31688,-0.50058 -0.163297,-1.28049 0.313487,-1.59197 0.595806,-0.38923 0.880553,-0.30013 3.21543,1.00631 1.796337,1.0051 2.2504,1.42194 2.249529,2.06507 -5.43e-4,0.40367 -0.687047,1.06561 -1.102963,1.0635 -0.184386,-10e-4 -1.277594,-0.51943 -2.429356,-1.15223 z m -8.617419,3.21476 c 0.3701,-0.59703 -2.824372,-2.21605 -5.081206,-2.57525 -1.88514,-0.30004 -8.812749,-0.78644 -14.01392,-0.98395 -2.730783,-0.1037 -3.59756,-0.0803 -3.709474,0.10028 -0.329805,0.53202 0.390585,0.65255 5.395781,0.90282 11.679154,0.58398 13.258996,0.78092 15.431228,1.9237 1.775313,0.93394 1.78813,0.93805 1.977591,0.63241 z m -1.743733,0.31949 c -1.512044,-0.87388 -2.529667,-1.19886 -4.499944,-1.43706 -1.569866,-0.1898 -8.327615,-0.62764 -13.887586,-0.89978 -1.474988,-0.0723 -2.832546,-0.21138 -3.016799,-0.30929 -0.232121,-0.12335 -0.3347,-0.40923 -0.333993,-0.93083 0.0018,-1.33655 -0.433035,-1.31117 10.920338,-0.63718 7.952177,0.47208 8.946475,0.62809 11.172855,1.75306 2.138323,1.08048 2.692866,1.90516 1.847794,2.74794 -0.527641,0.52622 -0.873832,0.48113 -2.202665,-0.28686 z m 12.463533,-0.10078 c 0.206702,-0.33344 -0.264756,-0.65097 -2.267843,-1.5274 -1.422163,-0.62225 -1.927994,-0.76653 -2.096882,-0.5981 -0.334314,0.33342 0.01204,0.59154 2.0162,1.50267 1.923859,0.8746 2.154528,0.93577 2.348525,0.62283 z m -2.597671,0.0846 c -1.105659,-0.48468 -2.160965,-1.01456 -2.345129,-1.17749 -0.683107,-0.6044 -0.192222,-1.96082 0.709167,-1.9596 0.447751,4.4e-4 4.319044,1.68626 4.750419,2.06844 0.475849,0.42158 0.426852,1.2997 -0.09277,1.66261 -0.605582,0.42295 -0.78016,0.38863 -3.021685,-0.59396 z m 1.527858,3.47361 c 4.01e-4,-0.27329 -3.602141,-2.2052 -4.113431,-2.20589 -0.198535,-8e-5 -0.29471,0.12541 -0.256293,0.3349 0.07159,0.39064 3.738129,2.36134 4.12102,2.21501 0.136604,-0.0522 0.248518,-0.20701 0.248704,-0.34402 z m -2.777979,0.1598 c -0.947619,-0.48166 -1.873622,-1.00914 -2.057786,-1.17219 -0.709133,-0.62784 -0.232428,-1.96107 0.700732,-1.9598 0.541112,2.3e-4 3.89312,1.62114 4.471378,2.16154 0.817596,0.76404 0.318489,1.87814 -0.831769,1.85665 -0.307792,-0.005 -1.334935,-0.40454 -2.282555,-0.8862 z M 61.44178,122.233 c -0.06017,-0.15752 -0.911451,-0.68157 -1.891666,-1.16454 -2.070771,-1.02035 -2.976932,-1.19161 -12.316586,-2.32784 -3.160376,-0.38448 -6.282533,-0.76671 -6.93813,-0.8494 -0.655588,-0.0827 -1.293137,-0.088 -1.416778,-0.0117 -0.444752,0.27404 4.69e-4,0.72548 0.824675,0.83633 0.453848,0.061 3.971181,0.5026 7.816296,0.98123 9.958432,1.23961 10.141163,1.2742 12.0658,2.28451 1.547251,0.8122 2.09924,0.887 1.856387,0.25157 z m -2.431896,0.33902 c -1.580482,-0.82613 -1.742664,-0.86693 -5.649385,-1.42136 -2.212207,-0.31395 -6.392493,-0.8477 -9.289525,-1.1861 -3.168165,-0.37008 -5.438968,-0.72214 -5.698007,-0.88341 -0.512734,-0.31923 -0.581821,-1.2291 -0.12771,-1.68199 0.414479,-0.41335 0.679335,-0.39729 7.840026,0.47547 11.309272,1.37841 12.212566,1.56084 14.734635,2.97575 1.353274,0.75919 1.670991,1.28842 1.282935,2.13706 -0.3184,0.69631 -1.190119,0.57922 -3.092969,-0.41542 z m 1.624541,2.80326 c 4.18e-4,-0.33016 -1.73278,-1.40662 -3.094811,-1.92211 -1.090234,-0.41262 -4.854347,-0.97855 -13.549772,-2.03719 -5.011305,-0.61012 -5.764477,-0.6627 -6.008338,-0.4195 -0.243853,0.2432 -0.233928,0.30215 0.0792,0.47027 0.196898,0.10572 1.952269,0.37766 3.900819,0.60431 4.978177,0.57906 13.360705,1.70809 14.479183,1.95018 0.51623,0.11174 1.541589,0.54051 2.278571,0.95282 1.373374,0.76833 1.914501,0.88169 1.915152,0.40122 z m -2.107745,0.35635 c -0.736986,-0.41433 -1.641577,-0.83667 -2.010216,-0.93853 -0.99578,-0.27512 -6.627202,-1.06446 -13.097243,-1.83577 -3.147847,-0.37526 -5.841254,-0.7804 -5.985328,-0.90031 -0.431919,-0.35945 -0.326275,-1.46029 0.171182,-1.78386 0.385248,-0.25057 1.025747,-0.20948 5.986035,0.384 12.675971,1.51662 14.058449,1.78097 16.372147,3.13039 1.447609,0.84431 1.790439,1.44649 1.272348,2.23486 -0.451032,0.68633 -1.09362,0.61736 -2.708925,-0.29078 z m 12.46234,0.77937 c 0.19933,-0.32155 -0.230754,-0.6089 -2.267375,-1.5149 -1.424139,-0.63353 -1.927325,-0.78017 -2.096856,-0.61109 -0.33388,0.33298 0.0086,0.58921 2.016488,1.50852 1.905116,0.87228 2.149878,0.93665 2.347743,0.61747 z m -2.789157,0.0252 c -2.247569,-1.03135 -2.733643,-1.5266 -2.340997,-2.38527 0.397394,-0.86907 0.974531,-0.82208 3.396451,0.27654 1.219612,0.55324 2.300147,1.16088 2.401198,1.35031 0.44255,0.82961 -0.07551,1.72341 -0.982598,1.69525 -0.255108,-0.008 -1.368432,-0.42949 -2.474054,-0.93683 z m -8.528697,2.83815 c 5.06e-4,-0.35519 -1.650065,-1.42847 -2.950398,-1.91851 -0.570227,-0.21489 -2.159976,-0.56442 -3.532779,-0.77674 -3.105335,-0.48025 -14.749035,-1.91314 -15.577682,-1.91702 -0.657768,-0.003 -0.988702,0.29358 -0.676607,0.60652 0.105972,0.10626 2.722922,0.49292 5.815444,0.85925 3.092522,0.36633 7.34655,0.91752 9.453404,1.22484 3.702069,0.54003 3.885252,0.58771 5.45781,1.42069 1.668801,0.88396 2.010173,0.96901 2.010808,0.50097 z m -2.345856,0.17094 c -0.987434,-0.54694 -1.842011,-0.84898 -2.96791,-1.0489 -1.598318,-0.28382 -9.593419,-1.33155 -14.701476,-1.92656 -1.527527,-0.17794 -2.928079,-0.40277 -3.112333,-0.49963 -0.23367,-0.12284 -0.334695,-0.4071 -0.333973,-0.93975 0.0017,-1.28595 0.108779,-1.29341 6.841927,-0.47752 12.249024,1.48432 13.779693,1.77974 15.951352,3.07867 1.293071,0.77343 1.706221,1.40705 1.381097,2.11805 -0.342059,0.74805 -1.337564,0.649 -3.058684,-0.30436 z m 13.24051,0.47051 c 0.208401,-0.33616 -0.279574,-0.64186 -2.471878,-1.54851 -1.682893,-0.69598 -2.356145,-0.89334 -2.539384,-0.74441 -0.392611,0.31909 0.01606,0.60125 2.258445,1.55946 2.026567,0.86598 2.579371,1.01327 2.752817,0.73346 z m -3.011805,-0.0403 c -1.247545,-0.52109 -2.38906,-1.04796 -2.536714,-1.17085 -0.328389,-0.27329 -0.35212,-1.35579 -0.03662,-1.67043 0.126604,-0.12627 0.467491,-0.22926 0.757522,-0.22886 0.611008,8.1e-4 4.692107,1.62781 5.188226,2.06835 0.703554,0.62476 0.231534,1.9685 -0.686825,1.95525 -0.229539,-0.003 -1.438052,-0.43236 -2.685589,-0.95346 z m 1.682433,3.08301 c -0.247119,-0.23801 -3.347974,-1.17213 -3.893417,-1.17287 -0.308201,-3.9e-4 -0.416837,0.0954 -0.372276,0.3285 0.04435,0.23208 0.626899,0.50752 1.976372,0.93448 1.620466,0.5127 1.95625,0.56566 2.192947,0.34583 0.1766,-0.164 0.212078,-0.3245 0.09637,-0.43594 z m -2.746343,0.73076 c -2.080941,-0.64452 -2.321939,-0.80357 -2.320954,-1.53185 0.0018,-1.28486 0.936676,-1.41355 3.638946,-0.5009 1.426798,0.48188 1.877044,0.72243 2.094356,1.11896 0.246529,0.44983 0.240827,0.55991 -0.05212,1.00567 -0.426667,0.64926 -1.019679,0.63304 -3.360231,-0.0919 z m -7.590443,-0.55487 c 4.12e-4,-0.30023 -1.81273,-1.36765 -3.254094,-1.91572 -1.775402,-0.67511 -18.930297,-2.8808 -19.397582,-2.49406 -0.603399,0.49941 0.352454,0.70771 6.851118,1.49303 11.05315,1.33571 12.398171,1.59109 14.268279,2.70918 0.991636,0.59287 1.531658,0.66603 1.532279,0.20757 z m -2.394963,0.24808 c -1.541387,-0.8235 -1.798804,-0.89434 -4.883206,-1.34385 -1.790827,-0.26098 -6.054641,-0.81395 -9.475163,-1.22882 -5.697659,-0.69106 -6.247668,-0.78967 -6.559663,-1.17604 -0.41776,-0.51734 -0.425081,-0.74756 -0.04118,-1.29411 0.225758,-0.32139 0.489877,-0.4251 1.080485,-0.4243 1.385245,0.002 14.425626,1.62531 17.725824,2.20674 1.817349,0.32018 4.44488,1.59723 5.099555,2.47851 0.36744,0.49464 0.375816,0.5762 0.108172,1.05378 -0.449015,0.80122 -1.165593,0.73744 -3.054841,-0.27191 z m 11.985746,3.93388 c 0.207994,-0.33552 -0.377316,-0.6666 -2.33925,-1.32317 -1.859,-0.62212 -2.465258,-0.66741 -2.465913,-0.18421 -2.98e-4,0.18905 0.67523,0.52276 2.010133,0.99305 2.195866,0.77361 2.589402,0.84603 2.79503,0.51433 z m -2.604573,0.31198 c -2.484888,-0.81737 -2.853424,-1.01094 -2.993491,-1.57224 -0.163463,-0.65503 0.39476,-1.3997 1.048592,-1.39881 0.534618,6.8e-4 4.017664,1.10808 4.790488,1.52303 0.579811,0.31132 0.570626,1.41591 -0.01514,1.82504 -0.551844,0.38541 -0.485781,0.39421 -2.830411,-0.37702 z m -1.261118,3.97427 c 1.254747,-0.49877 2.316813,-1.01452 2.360129,-1.14612 0.173194,-0.52611 -0.607181,-0.42958 -2.540956,0.31436 -1.116405,0.42948 -2.284681,0.78054 -2.596171,0.78012 -1.230379,-0.002 -18.011039,-3.9543 -21.681188,-5.10693 -2.259653,-0.70966 -2.627465,-1.17683 -3.283189,-4.17012 -0.1209,-0.55186 -0.621575,-0.718 -0.796401,-0.26426 -0.118617,0.30786 0.408619,2.46634 0.777044,3.18116 0.507502,0.98467 1.263649,1.5199 2.845369,2.01404 3.560967,1.11247 20.842695,5.25692 22.05522,5.28921 0.318322,0.008 1.605388,-0.39268 2.860143,-0.89146 z m -9.089465,0.32188 c -7.734969,-1.78445 -14.031503,-3.36141 -16.171913,-4.05024 -1.479053,-0.47599 -1.907135,-0.70645 -2.467485,-1.32839 -0.650407,-0.72189 -1.252584,-2.22747 -1.567633,-3.91945 -0.171653,-0.92188 0.286439,-1.64731 1.039602,-1.64629 0.698432,0.001 1.064569,0.44287 1.350652,1.63018 0.126971,0.52699 0.388938,1.31822 0.58214,1.75831 0.340965,0.77667 0.404908,0.8174 2.178988,1.38834 2.18547,0.70334 8.549032,2.28773 15.970751,3.97637 l 5.412364,1.23146 2.289149,-0.87616 c 2.496628,-0.95559 3.115505,-0.98268 3.49223,-0.15286 0.430442,0.9481 0.02488,1.30024 -2.72299,2.36429 -1.38598,0.53668 -2.793636,0.96499 -3.128134,0.95178 -0.334496,-0.0132 -3.150476,-0.61051 -6.257721,-1.32734 z m -2.196594,3.61953 c 0.246938,-0.39834 -0.402172,-0.69906 -2.787374,-1.29135 -1.953638,-0.48512 -2.43968,-0.54914 -2.643228,-0.34812 -0.40803,0.40295 0.07683,0.63988 2.564783,1.25331 2.660513,0.65598 2.695622,0.66072 2.865819,0.38616 z m -3.500258,0.2149 c -1.180795,-0.29033 -2.279452,-0.63818 -2.441461,-0.77301 -0.349631,-0.29096 -0.389489,-1.36628 -0.06273,-1.69216 0.35284,-0.35188 1.097957,-0.28012 3.799109,0.36589 1.901773,0.45484 2.550783,0.69011 2.77017,1.00423 0.643043,0.92072 0.128925,1.67693 -1.117724,1.64403 -0.440253,-0.0116 -1.766568,-0.25866 -2.947364,-0.54898 z m 5.562342,2.99184 c 1.051019,-0.43747 2.992106,-3.34604 2.627715,-3.93742 -0.229012,-0.37168 -0.443034,-0.16138 -1.269504,1.24745 -1.240507,2.11459 -1.073688,2.05654 -5.542236,1.92842 -4.345227,-0.12459 -6.299877,-0.44965 -6.867921,-1.14216 -0.422195,-0.51469 -0.341397,-1.70289 0.24285,-3.57115 0.298658,-0.95505 0.318451,-1.19979 0.110994,-1.37244 -0.337531,-0.2809 -0.722332,0.3241 -1.150529,1.80889 -0.954076,3.30823 -0.113523,4.41716 3.782703,4.99048 2.447467,0.36014 7.247341,0.38866 8.065928,0.0479 z m -6.676571,0.82017 c -5.209381,-0.53525 -6.398349,-1.36719 -6.160252,-4.31047 0.13195,-1.63114 0.742746,-3.52493 1.275682,-3.95528 0.395304,-0.31921 1.027382,-0.28414 1.49529,0.083 0.335159,0.26297 0.298242,0.88709 -0.147045,2.48555 -0.444041,1.59398 -0.485323,2.31887 -0.147177,2.5842 0.679907,0.53351 5.626176,1.12285 8.137568,0.96958 1.886375,-0.11512 2.167384,-0.30268 3.118579,-2.0815 0.727369,-1.36024 1.28953,-1.70683 2.00539,-1.23639 0.629264,0.41352 0.63647,1.17666 0.02242,2.37588 -0.749628,1.46403 -1.557168,2.44237 -2.309705,2.79823 -0.859396,0.40639 -4.669905,0.5565 -7.290758,0.28722 z m -1.460655,12.66243 c 0.112422,-0.20938 0.20055,-1.65574 0.202815,-3.32873 0.0032,-2.33193 -0.05393,-3.0067 -0.269686,-3.18623 -0.520984,-0.43358 -0.684416,0.41673 -0.688702,3.58327 -0.0023,1.67518 0.05328,3.10333 0.123416,3.17367 0.219905,0.2205 0.426248,0.14152 0.632157,-0.24198 z m -1.162142,0.73364 c -0.388566,-0.38962 -0.396634,-0.51051 -0.258993,-3.87963 0.07814,-1.91262 0.221119,-3.62825 0.317724,-3.8125 0.278178,-0.53054 1.421183,-0.44519 1.799826,0.1344 0.264914,0.40551 0.286462,0.91824 0.162237,3.86013 -0.123769,2.93116 -0.191542,3.44067 -0.498349,3.74665 -0.46698,0.46571 -1.027075,0.44767 -1.522445,-0.0491 z m 7.034055,4.71323 c 0.06263,-0.16251 0.05355,-0.35594 -0.0202,-0.42985 -0.07372,-0.0739 -2.086805,-0.20063 -4.473532,-0.2816 -2.386727,-0.081 -4.460372,-0.19377 -4.608094,-0.25069 -0.204168,-0.0787 -0.237957,-0.32081 -0.140872,-1.00948 0.204231,-1.44865 0.66007,-7.17814 0.807564,-10.1504 0.08393,-1.69135 0.218595,-2.78557 0.353574,-2.87307 0.236216,-0.15311 8.618605,-0.0702 9.180439,0.0908 0.319042,0.0914 0.339958,0.47714 0.31185,5.7505 -0.01659,3.10887 0.01626,5.69897 0.07287,5.75577 0.05669,0.0568 0.2225,0.0576 0.368557,0.002 0.344845,-0.13186 0.521272,-2.8748 0.528506,-8.21687 l 0.0054,-3.9979 -0.452764,-0.17284 c -0.722851,-0.27598 -10.62139,-0.32868 -10.89278,-0.058 -0.144185,0.14379 -0.311596,1.79469 -0.46472,4.5826 -0.284444,5.17893 -0.610167,8.89306 -0.860915,9.81673 -0.252233,0.92915 -0.233281,1.08713 0.150374,1.25322 0.446459,0.19328 3.905966,0.40692 7.285046,0.44989 2.308391,0.0293 2.753623,-0.0113 2.849673,-0.26068 z m -5.777921,0.85386 c -1.685717,-0.0743 -3.383383,-0.1473 -3.772602,-0.16209 -0.442222,-0.0168 -0.907911,-0.19962 -1.241516,-0.48736 -0.525114,-0.45292 -0.529747,-0.47565 -0.28308,-1.38926 0.316583,-1.17259 0.725647,-5.50518 1.010037,-10.69784 0.157633,-2.87823 0.299335,-4.14518 0.498062,-4.45332 0.259904,-0.40299 0.410839,-0.43048 2.349787,-0.42785 4.488421,0.006 9.614021,0.26508 9.937311,0.50215 0.293076,0.21491 0.316771,0.81109 0.259595,6.53108 -0.06934,6.93397 -0.105919,7.1566 -1.176678,7.15515 -1.195726,-0.002 -1.207844,-0.0676 -1.123497,-6.11854 l 0.07626,-5.47285 -1.628172,-0.12687 c -0.895497,-0.0698 -2.765109,-0.13697 -4.154705,-0.14931 l -2.526525,-0.0224 -0.09859,0.81404 c -0.05426,0.44772 -0.198306,2.58113 -0.320169,4.74092 -0.12187,2.15978 -0.304787,4.65282 -0.406486,5.54007 -0.144568,1.26128 -0.131443,1.64723 0.06016,1.76917 0.134788,0.0858 1.279526,0.16783 2.543867,0.18232 3.967137,0.0455 6.218382,0.24392 6.42112,0.56604 0.325466,0.51712 0.208432,1.30349 -0.24069,1.61715 -0.461284,0.32217 -0.800222,0.32708 -6.183508,0.0896 z"
           style="fill:#ffffff;stroke:#ffffff;stroke-width:0.19156955;stroke-opacity:1"
           id="path1342" />
      </g>
      <path
         style="fill:#000000;stroke-width:0.19156955"
         d="m 149.51587,21.682603 c -0.11181,-0.209599 -0.14137,-1.171034 -0.0726,-2.358491 0.13701,-2.362596 -0.058,-3.149484 -0.98212,-3.963091 l -0.64009,-0.56355 -3.7055,-0.118578 c -7.65663,-0.245026 -57.816547,-0.391453 -91.01949,-0.265766 -32.085336,0.121485 -34.476755,0.152951 -34.962092,0.459752 -0.286539,0.18114 -0.748001,0.539636 -1.025477,0.796649 -0.367304,0.34022 -0.674759,0.450269 -1.130641,0.404699 -1.341311,-0.134075 -1.238376,-1.30384 0.215584,-2.44994 0.532205,-0.41951 1.328801,-0.866446 1.770204,-0.993181 0.619862,-0.177963 15.455786,-0.213322 65.169885,-0.155358 35.402037,0.04127 64.698247,0.145489 65.102707,0.231612 0.88313,0.188045 2.27791,1.413917 2.86908,2.52166 0.36808,0.68971 0.41204,1.061394 0.39772,3.361621 -0.0189,3.020067 -0.16055,3.448034 -1.14147,3.446708 -0.44267,-4.55e-4 -0.7186,-0.116343 -0.84578,-0.354753 z"
         id="path1340"
         inkscape:connector-curvature="0" />
      <path
         style="fill:#eb2b6e;fill-opacity:1;stroke:#ffffff;stroke-width:0.19156955;stroke-opacity:1"
         d="m 150.98566,19.12359 c 0.1147,-2.189188 -0.0496,-2.989859 -0.86869,-4.233718 -0.26446,-0.401614 -0.83217,-0.934678 -1.26156,-1.184574 -0.73931,-0.430271 -1.00922,-0.460445 -5.09086,-0.568991 -9.29523,-0.247208 -57.765597,-0.383819 -90.735373,-0.255723 -31.542514,0.122512 -34.757022,0.163296 -35.308773,0.447729 -0.795664,0.410087 -2.118441,1.608256 -2.118861,1.919277 -7.3e-4,0.513726 0.565821,0.425975 1.300893,-0.201501 0.420591,-0.35902 1.011548,-0.750294 1.31323,-0.869503 0.60143,-0.237634 112.333304,-0.260413 123.954814,-0.02525 l 6.16572,0.124768 0.5828,0.560182 c 0.9888,0.95048 1.23864,1.926351 1.09226,4.266653 -0.13722,2.193916 0.0336,2.854151 0.59379,2.295438 0.18902,-0.188487 0.30882,-0.904524 0.38061,-2.274729 z"
         id="path1268"
         inkscape:connector-curvature="0" />
      <path
         style="opacity:1;fill:url(#radialGradient1796);fill-opacity:1;fill-rule:nonzero;stroke:none;stroke-width:0.11903935;stroke-miterlimit:4;stroke-dasharray:none;stroke-opacity:1"
         d="M -0.16466922,0.36484867 H 11.962686 V 13.060153 H -0.16466922 Z"
         id="rect1785" />
      <path
         style="opacity:1;fill:url(#radialGradient1920);fill-opacity:1;fill-rule:nonzero;stroke:none;stroke-width:0.11903935;stroke-miterlimit:4;stroke-dasharray:none;stroke-opacity:1"
         d="M 0.06136685,-115.34085 H 12.188722 v 12.6953 H 0.06136685 Z"
         id="rect1918"
         transform="scale(1,-1)" />
      <path
         style="opacity:1;fill:url(#radialGradient1924);fill-opacity:1;fill-rule:nonzero;stroke:none;stroke-width:0.11903935;stroke-miterlimit:4;stroke-dasharray:none;stroke-opacity:1"
         d="m -163.86377,-115.47705 h 12.12736 v 12.6953 h -12.12736 z"
         id="rect1922"
         transform="rotate(179.87967)" />
      <path
         style="opacity:1;fill:url(#radialGradient1928);fill-opacity:1;fill-rule:nonzero;stroke:none;stroke-width:0.11730811;stroke-miterlimit:4;stroke-dasharray:none;stroke-opacity:1"
         d="m -163.98743,0.10735955 h 12.12736 V 12.436085 h -12.12736 z"
         id="rect1926"
         transform="matrix(-0.99999677,0.00254023,0.00269354,0.99999637,0,0)" />
    </g>
  </g>
</svg>
