<?xml version="1.0" encoding="UTF-8" standalone="no"?>
<!-- Created with Inkscape (http://www.inkscape.org/) -->

<svg
   xmlns:dc="http://purl.org/dc/elements/1.1/"
   xmlns:cc="http://creativecommons.org/ns#"
   xmlns:rdf="http://www.w3.org/1999/02/22-rdf-syntax-ns#"
   xmlns:svg="http://www.w3.org/2000/svg"
   xmlns="http://www.w3.org/2000/svg"
   xmlns:sodipodi="http://sodipodi.sourceforge.net/DTD/sodipodi-0.dtd"
   xmlns:inkscape="http://www.inkscape.org/namespaces/inkscape"
   width="210mm"
   height="297mm"
   viewBox="0 0 210 297"
   version="1.1"
   id="svg8"
   sodipodi:docname="input_border_top.svg"
   inkscape:version="0.92.4 (5da689c313, 2019-01-14)">
  <defs
     id="defs2">
    <marker
       inkscape:stockid="Arrow1Lstart"
       orient="auto"
       refY="0.0"
       refX="0.0"
       id="Arrow1Lstart"
       style="overflow:visible"
       inkscape:isstock="true">
      <path
         id="path830"
         d="M 0.0,0.0 L 5.0,-5.0 L -12.5,0.0 L 5.0,5.0 L 0.0,0.0 z "
         style="fill-rule:evenodd;stroke:#000000;stroke-width:1.0pt"
         transform="scale(0.8) translate(12.5,0)" />
    </marker>
  </defs>
  <sodipodi:namedview
     id="base"
     pagecolor="#ffffff"
     bordercolor="#666666"
     borderopacity="1.0"
     inkscape:pageopacity="0.0"
     inkscape:pageshadow="2"
     inkscape:zoom="1.4142136"
     inkscape:cx="179.28905"
     inkscape:cy="1075.1752"
     inkscape:document-units="mm"
     inkscape:current-layer="layer1"
     showgrid="false"
     showguides="false"
     inkscape:window-width="1920"
     inkscape:window-height="1017"
     inkscape:window-x="-8"
     inkscape:window-y="-8"
     inkscape:window-maximized="1" />
  <metadata
     id="metadata5">
    <rdf:RDF>
      <cc:Work
         rdf:about="">
        <dc:format>image/svg+xml</dc:format>
        <dc:type
           rdf:resource="http://purl.org/dc/dcmitype/StillImage" />
        <dc:title></dc:title>
      </cc:Work>
    </rdf:RDF>
  </metadata>
  <g
     inkscape:label="Layer 1"
     inkscape:groupmode="layer"
     id="layer1"
     style="display:inline">
    <rect
       style="display:inline;opacity:0;fill:#2c1333;fill-opacity:0.78888885;fill-rule:nonzero;stroke:none;stroke-width:0.1;stroke-miterlimit:4;stroke-dasharray:none;stroke-opacity:1"
       id="rect862"
       width="99.785713"
       height="66.145836"
       x="60.672546"
       y="28.561295" />
    <path
       inkscape:connector-curvature="0"
       id="path1268-1"
       d="m 135.56624,6.423558 c 0.1147,-2.18919 -0.0496,-2.98986 -0.86869,-4.23372 -0.26447,-0.40161 -0.83217,-0.93467 -1.26156,-1.18457 C 132.69667,0.57499796 132.42676,0.54481796 128.34513,0.43627796 119.04989,0.18906794 70.579529,0.05245794 37.609758,0.18055794 6.0672441,0.30306794 2.8527361,0.34384794 2.3009851,0.62827796 1.5053211,1.038368 0.18254413,2.236538 0.18212413,2.547558 c -7.3e-4,0.51373 0.565821,0.42598 1.30089297,-0.2015 0.420591,-0.35902 1.011548,-0.75029 1.31323,-0.8695 0.60143,-0.23764 112.3332929,-0.26042 123.9548129,-0.0252 l 6.16572,0.12477 0.5828,0.56018 c 0.98879,0.95048 1.23864,1.92635 1.09225,4.26665 -0.13721,2.19392 0.0336,2.85415 0.5938,2.29544 0.18902,-0.18849 0.30881,-0.90453 0.38061,-2.27473 z"
       style="display:inline;fill:#eb2b6e;fill-opacity:1;stroke:#ffffff;stroke-width:0.19156955;stroke-opacity:1" />
  </g>
</svg>
